<?xml version="1.0" encoding="utf-8"?>
<!-- Generator: Adobe Illustrator 17.0.0, SVG Export Plug-In . SVG Version: 6.00 Build 0)  -->
<!DOCTYPE svg PUBLIC "-//W3C//DTD SVG 1.1//EN" "http://www.w3.org/Graphics/SVG/1.1/DTD/svg11.dtd">
<svg version="1.1" id="Layer_1" xmlns="http://www.w3.org/2000/svg" xmlns:xlink="http://www.w3.org/1999/xlink" x="0px" y="0px"
	 width="400px" height="433.104px" viewBox="0 0 400 433.104" enable-background="new 0 0 400 433.104" xml:space="preserve">
<g>
	<polygon fill="#FA5651" points="400,0 0,0 0,387.886 400,433.104 	"/>
</g>
<g id="workman_1_">
	<path fill="none" stroke="#FFFFFF" stroke-width="3.7" stroke-linecap="round" stroke-linejoin="round" stroke-miterlimit="10" d="
		M211.271,115.101c-5.806,9.305-14.602,14.189-23.725,8.273c-9.122-5.92-8.508-16.12-2.702-25.425
		c5.806-9.305,14.602-14.193,23.721-8.265C217.688,95.604,217.077,105.8,211.271,115.101z"/>
	<path fill="none" stroke="#FFFFFF" stroke-width="3.7" stroke-linecap="round" stroke-linejoin="round" stroke-miterlimit="10" d="
		M114.511,226.986c0,0,0,8.257,0,19.429c0,11.172-6.03,19.224-6.03,19.224l-22.184,27.831c-2.93,3.142-4.178,6.732-1.036,9.661
		c3.138,2.926,6.633,1.427,9.563-1.711l28.704-28.988c0,0,6.55-6.827,7.62-17.528l0.85-12.375"/>
	<path fill="none" stroke="#FFFFFF" stroke-width="3.7" stroke-linecap="round" stroke-linejoin="round" stroke-miterlimit="10" d="
		M128.446,221.112l28.116,27.82c0,0,3.852,3.556,4.58,9.141l3.886,38.859c0,4.292,1.537,7.772,5.829,7.772
		c4.292,0,5.829-3.48,5.829-7.772v-38.859c0-2.801-0.034-6.117-2.167-9.335l-22.461-33.409c-4.273-7.286-4.03-11.415,1.4-19.38
		c4.823-7.161,23.228-31.136,23.228-31.136l3.882,56.345c0.326,3.48,2.607,5.829,5.829,5.829c3.222,0,5.829-2.611,5.829-5.829
		c0,0,0.004-52.459,0.004-64.117s-15.543-23.315-15.543-23.315s-11.009-7.772-23.315-7.772c-12.307,0-33.754,0-33.754,0
		s-7.878,0.174-12.481,7.783l-15.092,26.12l-0.004-0.004c-0.535,0.881-0.842,1.913-0.842,3.017c0,3.218,2.611,5.829,5.829,5.829
		c2.011,0,3.787-1.021,4.834-2.569l-0.068,0.095l12.925-17.494c0,0,5.461-7.233,13.639-7.233h21.129c0,0-14.8,19.741-27.82,36.935
		C109.168,194.928,114.348,207.015,128.446,221.112z"/>
	<path fill="none" stroke="#FFFFFF" stroke-width="3.7" stroke-linecap="round" stroke-linejoin="round" stroke-miterlimit="10" d="
		M316.576,304.703c0-19.657-14.598-35.906-33.542-38.498l0.007,0.011c-4.284-9.388-13.756-15.915-24.753-15.915
		c-14.082,0-25.645,10.534-27.038,24.252c-13.491,3.396-23.478,15.608-23.478,30.15H316.576z"/>
	<path fill="none" stroke="#FFFFFF" stroke-width="3.7" stroke-linecap="round" stroke-linejoin="round" stroke-miterlimit="10" d="
		M232.757,268.016l-13.824-9.441c-3.544-2.421-4.455-7.256-2.034-10.8l6.576-9.627c2.421-3.544,7.256-4.455,10.8-2.034
		l20.951,14.363"/>
	
		<line fill="none" stroke="#FFFFFF" stroke-width="3.7" stroke-linecap="round" stroke-linejoin="round" stroke-miterlimit="10" x1="191.781" y1="223.397" x2="220.393" y2="242.659"/>
	
		<line fill="none" stroke="#FFFFFF" stroke-width="3.7" stroke-linecap="round" stroke-linejoin="round" stroke-miterlimit="10" x1="152.695" y1="197.091" x2="180.176" y2="215.587"/>
	
		<line fill="none" stroke="#FFFFFF" stroke-width="3.7" stroke-linecap="round" stroke-linejoin="round" stroke-miterlimit="10" x1="103.469" y1="163.955" x2="122.777" y2="176.956"/>
</g>
</svg>
