<?xml version="1.0" encoding="utf-8"?>
<!-- Generator: Adobe Illustrator 17.0.0, SVG Export Plug-In . SVG Version: 6.00 Build 0)  -->
<!DOCTYPE svg PUBLIC "-//W3C//DTD SVG 1.1//EN" "http://www.w3.org/Graphics/SVG/1.1/DTD/svg11.dtd">
<svg version="1.1" id="Layer_1" xmlns="http://www.w3.org/2000/svg" xmlns:xlink="http://www.w3.org/1999/xlink" x="0px" y="0px"
	 width="400px" height="433.104px" viewBox="0 0 400 433.104" enable-background="new 0 0 400 433.104" xml:space="preserve">
<g>
	<polygon fill="#FA5651" points="400,0 0,0 0,387.886 400,433.104 	"/>
</g>
<g id="digger_1_">
	
		<polygon fill="none" stroke="#FFFFFF" stroke-width="3.7" stroke-linecap="round" stroke-linejoin="round" stroke-miterlimit="10" points="
		195.953,162.085 195.953,194.469 147.377,166.133 147.377,125.654 175.713,125.654 	"/>
	<path fill="none" stroke="#FFFFFF" stroke-width="3.7" stroke-linecap="round" stroke-linejoin="round" stroke-miterlimit="10" d="
		M131.185,174.229v-16.192v-36.432c0-6.706,5.436-12.144,12.144-12.144c0,0,22.011,0,32.384,0s13.978,4.275,17.378,12.215
		c3.404,7.938,19.054,36.36,19.054,36.36v63.419"/>
	<path fill="none" stroke="#FFFFFF" stroke-width="3.7" stroke-linecap="round" stroke-linejoin="round" stroke-miterlimit="10" d="
		M131.185,174.229c-10.373,0-20.24,0-20.24,0c-6.708,0-12.144,5.438-12.144,12.144v56.671c0,6.706,5.436,12.144,12.144,12.144
		h117.39V230.9L131.185,174.229z"/>
	<path fill="none" stroke="#FFFFFF" stroke-width="3.7" stroke-linecap="round" stroke-linejoin="round" stroke-miterlimit="10" d="
		M106.898,303.763c-8.942,0-16.192-7.25-16.192-16.192s7.25-16.192,16.192-16.192h121.438c8.942,0,16.192,7.25,16.192,16.192
		s-7.25,16.192-16.192,16.192H106.898z"/>
	<path fill="none" stroke="#FFFFFF" stroke-width="3.7" stroke-linecap="round" stroke-linejoin="round" stroke-miterlimit="10" d="
		M285.007,303.763c0,0-32.384-8.096-32.384-48.575"/>
	
		<line fill="none" stroke="#FFFFFF" stroke-width="3.7" stroke-linecap="round" stroke-linejoin="round" stroke-miterlimit="10" x1="114.994" y1="198.517" x2="131.185" y2="198.517"/>
	
		<line fill="none" stroke="#FFFFFF" stroke-width="3.7" stroke-linecap="round" stroke-linejoin="round" stroke-miterlimit="10" x1="114.994" y1="214.708" x2="131.185" y2="214.708"/>
	
		<line fill="none" stroke="#FFFFFF" stroke-width="3.7" stroke-linecap="round" stroke-linejoin="round" stroke-miterlimit="10" x1="114.994" y1="230.9" x2="131.185" y2="230.9"/>
	<path fill="none" stroke="#FFFFFF" stroke-width="3.7" stroke-linecap="round" stroke-linejoin="round" stroke-miterlimit="10" d="
		M198.487,132.605l42.689-42.687c6.321-6.325,16.575-6.325,22.896,0c6.325,6.321,6.325,16.575,0,22.896l-51.927,51.932"/>
	
		<line fill="none" stroke="#FFFFFF" stroke-width="3.7" stroke-linecap="round" stroke-linejoin="round" stroke-miterlimit="10" x1="297.151" y1="182.325" x2="266.997" y2="93.914"/>
	
		<line fill="none" stroke="#FFFFFF" stroke-width="3.7" stroke-linecap="round" stroke-linejoin="round" stroke-miterlimit="10" x1="251.928" y1="124.958" x2="285.007" y2="190.421"/>
	<path fill="none" stroke="#FFFFFF" stroke-width="3.7" stroke-linecap="round" stroke-linejoin="round" stroke-miterlimit="10" d="
		M253.45,221.199c9.974,11.266,36.167,12.966,48.425,3.803c12.258-9.165,7.768-28.498-2.202-39.764l-2.522-2.913l-52.623,40.479
		L253.45,221.199z"/>
	
		<circle fill="none" stroke="#FFFFFF" stroke-width="3.7" stroke-linecap="round" stroke-linejoin="round" stroke-miterlimit="10" cx="106.898" cy="287.571" r="16.192"/>
	
		<circle fill="none" stroke="#FFFFFF" stroke-width="3.7" stroke-linecap="round" stroke-linejoin="round" stroke-miterlimit="10" cx="147.377" cy="287.571" r="16.192"/>
	
		<circle fill="none" stroke="#FFFFFF" stroke-width="3.7" stroke-linecap="round" stroke-linejoin="round" stroke-miterlimit="10" cx="187.857" cy="287.571" r="16.192"/>
	
		<circle fill="none" stroke="#FFFFFF" stroke-width="3.7" stroke-linecap="round" stroke-linejoin="round" stroke-miterlimit="10" cx="228.336" cy="287.571" r="16.192"/>
</g>
</svg>
