<?xml version="1.0" encoding="utf-8"?>
<!-- Generator: Adobe Illustrator 17.0.0, SVG Export Plug-In . SVG Version: 6.00 Build 0)  -->
<!DOCTYPE svg PUBLIC "-//W3C//DTD SVG 1.1//EN" "http://www.w3.org/Graphics/SVG/1.1/DTD/svg11.dtd">
<svg version="1.1" id="Layer_1" xmlns="http://www.w3.org/2000/svg" xmlns:xlink="http://www.w3.org/1999/xlink" x="0px" y="0px"
	 width="400px" height="433.104px" viewBox="0 0 400 433.104" enable-background="new 0 0 400 433.104" xml:space="preserve">
<g>
	<polygon fill="#FA5651" points="400,0 0,0 0,387.886 400,433.104 	"/>
</g>
<g id="club_x5F_hammer_1_">
	<path fill="none" stroke="#FFFFFF" stroke-width="3.7" stroke-linecap="round" stroke-linejoin="round" stroke-miterlimit="10" d="
		M276.945,201.807c-4.357,4.349-11.415,4.349-15.764,0l-63.803-63.803c-4.357-4.357-4.349-11.408,0-15.757l21.014-21.014
		c4.349-4.349,11.407-4.357,15.757,0l63.803,63.803c4.357,4.349,4.357,11.408,0,15.757L276.945,201.807z"/>
	<path fill="none" stroke="#FFFFFF" stroke-width="3.7" stroke-linecap="round" stroke-linejoin="round" stroke-miterlimit="10" d="
		M218.773,159.399L100.956,277.216c-2.9,2.899-2.9,7.6,0,10.507l10.507,10.507c2.9,2.9,7.6,2.9,10.507,0l117.817-117.817"/>
	<path fill="none" stroke="#FFFFFF" stroke-width="3.7" stroke-linecap="round" stroke-linejoin="round" stroke-miterlimit="10" d="
		M255.543,122.628l5.257-5.257c2.899-2.9,7.607-2.9,10.507,0l10.507,10.507c2.9,2.907,2.9,7.607,0,10.507l-5.257,5.257"/>
</g>
</svg>
